# xmcd CD database file
#
# Track frame offsets:
#	150
#	54452
#	107551
#	135856
#	183457
#	221926
#
# Disc length: 3762 seconds
#
# Revision: 0
# Processed by: cddbd v1.5.2PL0 Copyright (c) Steve Scherf et al.
# Submitted via: CDex 1.51
#
DISCID=510eb006
DTITLE=Ned Rothenberg's Sync - Inner Diaspora
DYEAR=2007
DGENRE=Jazz
TTITLE0=Keyn Eynhore
TTITLE1=Fuga Ladino
TTITLE2=Minutia
TTITLE3=Krechtser Walk
TTITLE4=Fantazyor
TTITLE5=Gilgulim
EXTD=YEAR: 2007
EXTT0=
EXTT1=
EXTT2=
EXTT3=
EXTT4=
EXTT5=
PLAYORDER=
